<svg width="25" height="25" viewBox="0 0 25 25" fill="none" xmlns="http://www.w3.org/2000/svg">
<circle cx="12.5" cy="12.5" r="12.5" transform="matrix(1 0 0 -1 0 25)" fill="white"/>
<path d="M11.8086 8.43063C12.0038 8.23536 12.3204 8.23536 12.5157 8.43063L15.6976 11.6126C15.8929 11.8079 15.8929 12.1245 15.6976 12.3197C15.5024 12.515 15.1858 12.515 14.9905 12.3197L12.1621 9.49129L9.33368 12.3197C9.13842 12.515 8.82184 12.515 8.62658 12.3197C8.43131 12.1245 8.43131 11.8079 8.62658 11.6126L11.8086 8.43063ZM11.6621 16.2158L11.6621 8.78418L12.6621 8.78418L12.6621 16.2158L11.6621 16.2158Z" fill="#091E32"/>
</svg>
