<svg width="309" height="95" viewBox="0 0 309 95" fill="none" xmlns="http://www.w3.org/2000/svg">
<g filter="url(#filter0_d_1504_76)">
<rect width="309" height="92" rx="10" fill="#3CA8FE"/>
<rect width="309" height="92" rx="10" fill="url(#paint0_radial_1504_76)" fill-opacity="0.34"/>
<rect x="0.5" y="0.5" width="308" height="91" rx="9.5" stroke="white" stroke-opacity="0.2"/>
<rect x="0.5" y="0.5" width="308" height="91" rx="9.5" stroke="url(#paint1_radial_1504_76)" stroke-opacity="0.53"/>
</g>
<path d="M49.1513 30.5H51.4013L53.8763 34.01L56.3513 30.5H58.6313L55.1063 35.54L58.9163 41H56.6063L53.8763 37.175L51.1613 41H48.9113L52.7063 35.615L49.1513 30.5ZM65.0662 41.15C64.2462 41.15 63.4912 41.015 62.8012 40.745C62.1112 40.475 61.5112 40.1 61.0012 39.62C60.4912 39.13 60.0962 38.56 59.8162 37.91C59.5362 37.25 59.3962 36.53 59.3962 35.75C59.3962 34.97 59.5362 34.255 59.8162 33.605C60.0962 32.945 60.4912 32.375 61.0012 31.895C61.5112 31.405 62.1112 31.025 62.8012 30.755C63.4912 30.485 64.2412 30.35 65.0512 30.35C65.8712 30.35 66.6212 30.485 67.3012 30.755C67.9912 31.025 68.5912 31.405 69.1012 31.895C69.6112 32.375 70.0062 32.945 70.2862 33.605C70.5662 34.255 70.7062 34.97 70.7062 35.75C70.7062 36.53 70.5662 37.25 70.2862 37.91C70.0062 38.57 69.6112 39.14 69.1012 39.62C68.5912 40.1 67.9912 40.475 67.3012 40.745C66.6212 41.015 65.8762 41.15 65.0662 41.15ZM65.0512 39.44C65.5812 39.44 66.0712 39.35 66.5212 39.17C66.9712 38.99 67.3612 38.735 67.6912 38.405C68.0212 38.065 68.2762 37.675 68.4562 37.235C68.6462 36.785 68.7412 36.29 68.7412 35.75C68.7412 35.21 68.6462 34.72 68.4562 34.28C68.2762 33.83 68.0212 33.44 67.6912 33.11C67.3612 32.77 66.9712 32.51 66.5212 32.33C66.0712 32.15 65.5812 32.06 65.0512 32.06C64.5212 32.06 64.0312 32.15 63.5812 32.33C63.1412 32.51 62.7512 32.77 62.4112 33.11C62.0812 33.44 61.8212 33.83 61.6312 34.28C61.4512 34.72 61.3612 35.21 61.3612 35.75C61.3612 36.28 61.4512 36.77 61.6312 37.22C61.8212 37.67 62.0812 38.065 62.4112 38.405C62.7412 38.735 63.1312 38.99 63.5812 39.17C64.0312 39.35 64.5212 39.44 65.0512 39.44ZM79.1974 36.92C78.6474 37.15 78.1124 37.32 77.5924 37.43C77.0724 37.54 76.5674 37.595 76.0774 37.595C74.7374 37.595 73.7024 37.275 72.9724 36.635C72.2524 35.985 71.8924 35.055 71.8924 33.845V30.5H73.8274V33.635C73.8274 34.375 74.0424 34.94 74.4724 35.33C74.9024 35.72 75.5174 35.915 76.3174 35.915C76.7974 35.915 77.2774 35.86 77.7574 35.75C78.2474 35.64 78.7174 35.47 79.1674 35.24L79.1974 36.92ZM78.8974 41V30.5H80.8324V41H78.8974ZM83.9252 39.35C84.4752 39.54 84.9602 39.59 85.3802 39.5C85.8002 39.41 86.1752 39.105 86.5052 38.585L87.0152 37.79L87.2102 37.58L90.8702 30.5H92.7902L88.2302 38.975C87.8602 39.685 87.4202 40.225 86.9102 40.595C86.4002 40.965 85.8502 41.17 85.2602 41.21C84.6802 41.26 84.0752 41.15 83.4452 40.88L83.9252 39.35ZM87.1652 39.26L82.4852 30.5H84.5702L88.2302 37.76L87.1652 39.26ZM103.387 41.15C102.567 41.15 101.812 41.015 101.122 40.745C100.432 40.475 99.8315 40.1 99.3215 39.62C98.8115 39.13 98.4165 38.56 98.1365 37.91C97.8565 37.25 97.7165 36.53 97.7165 35.75C97.7165 34.97 97.8565 34.255 98.1365 33.605C98.4165 32.945 98.8115 32.375 99.3215 31.895C99.8315 31.405 100.432 31.025 101.122 30.755C101.812 30.485 102.562 30.35 103.372 30.35C104.192 30.35 104.942 30.485 105.622 30.755C106.312 31.025 106.912 31.405 107.422 31.895C107.932 32.375 108.327 32.945 108.607 33.605C108.887 34.255 109.027 34.97 109.027 35.75C109.027 36.53 108.887 37.25 108.607 37.91C108.327 38.57 107.932 39.14 107.422 39.62C106.912 40.1 106.312 40.475 105.622 40.745C104.942 41.015 104.197 41.15 103.387 41.15ZM103.372 39.44C103.902 39.44 104.392 39.35 104.842 39.17C105.292 38.99 105.682 38.735 106.012 38.405C106.342 38.065 106.597 37.675 106.777 37.235C106.967 36.785 107.062 36.29 107.062 35.75C107.062 35.21 106.967 34.72 106.777 34.28C106.597 33.83 106.342 33.44 106.012 33.11C105.682 32.77 105.292 32.51 104.842 32.33C104.392 32.15 103.902 32.06 103.372 32.06C102.842 32.06 102.352 32.15 101.902 32.33C101.462 32.51 101.072 32.77 100.732 33.11C100.402 33.44 100.142 33.83 99.9515 34.28C99.7715 34.72 99.6815 35.21 99.6815 35.75C99.6815 36.28 99.7715 36.77 99.9515 37.22C100.142 37.67 100.402 38.065 100.732 38.405C101.062 38.735 101.452 38.99 101.902 39.17C102.352 39.35 102.842 39.44 103.372 39.44ZM113.241 41V31.67L113.706 32.15H109.776V30.5H118.656V32.15H114.726L115.176 31.67V41H113.241ZM120.338 41V30.5H124.658C125.588 30.5 126.383 30.65 127.043 30.95C127.713 31.25 128.228 31.68 128.588 32.24C128.948 32.8 129.128 33.465 129.128 34.235C129.128 35.005 128.948 35.67 128.588 36.23C128.228 36.79 127.713 37.22 127.043 37.52C126.383 37.82 125.588 37.97 124.658 37.97H121.418L122.288 37.055V41H120.338ZM122.288 37.265L121.418 36.32H124.568C125.428 36.32 126.073 36.14 126.503 35.78C126.943 35.41 127.163 34.895 127.163 34.235C127.163 33.565 126.943 33.05 126.503 32.69C126.073 32.33 125.428 32.15 124.568 32.15H121.418L122.288 31.19V37.265ZM130.987 41V30.5H132.907V37.955L138.547 30.5H140.362V41H138.442V33.56L132.802 41H130.987ZM143.321 41V30.5H144.911L149.516 38.165H148.661L153.191 30.5H154.781L154.811 41H152.951L152.936 33.395H153.326L149.486 39.8H148.616L144.716 33.395H145.166V41H143.321ZM156.415 41L161.14 30.5H163.06L167.8 41H165.76L161.695 31.535H162.475L158.425 41H156.415ZM158.59 38.57L159.115 37.04H164.785L165.31 38.57H158.59ZM171.088 41V31.67L171.553 32.15H167.623V30.5H176.503V32.15H172.573L173.023 31.67V41H171.088ZM178.199 41V30.5H180.119V37.955L185.759 30.5H187.574V41H185.654V33.56L180.014 41H178.199ZM201.639 40.1V32.15H197.529L197.454 34.01C197.424 34.71 197.379 35.375 197.319 36.005C197.269 36.625 197.184 37.19 197.064 37.7C196.954 38.21 196.799 38.635 196.599 38.975C196.399 39.315 196.154 39.54 195.864 39.65L193.764 39.35C194.144 39.37 194.454 39.24 194.694 38.96C194.944 38.68 195.139 38.29 195.279 37.79C195.419 37.29 195.524 36.705 195.594 36.035C195.664 35.355 195.714 34.62 195.744 33.83L195.864 30.5H203.559V40.1H201.639ZM193.404 43.235L193.419 39.35H205.074V43.235H203.274V41H195.219V43.235H193.404ZM211.785 41.15C210.965 41.15 210.21 41.015 209.52 40.745C208.83 40.475 208.23 40.1 207.72 39.62C207.21 39.13 206.815 38.56 206.535 37.91C206.255 37.25 206.115 36.53 206.115 35.75C206.115 34.97 206.255 34.255 206.535 33.605C206.815 32.945 207.21 32.375 207.72 31.895C208.23 31.405 208.83 31.025 209.52 30.755C210.21 30.485 210.96 30.35 211.77 30.35C212.59 30.35 213.34 30.485 214.02 30.755C214.71 31.025 215.31 31.405 215.82 31.895C216.33 32.375 216.725 32.945 217.005 33.605C217.285 34.255 217.425 34.97 217.425 35.75C217.425 36.53 217.285 37.25 217.005 37.91C216.725 38.57 216.33 39.14 215.82 39.62C215.31 40.1 214.71 40.475 214.02 40.745C213.34 41.015 212.595 41.15 211.785 41.15ZM211.77 39.44C212.3 39.44 212.79 39.35 213.24 39.17C213.69 38.99 214.08 38.735 214.41 38.405C214.74 38.065 214.995 37.675 215.175 37.235C215.365 36.785 215.46 36.29 215.46 35.75C215.46 35.21 215.365 34.72 215.175 34.28C214.995 33.83 214.74 33.44 214.41 33.11C214.08 32.77 213.69 32.51 213.24 32.33C212.79 32.15 212.3 32.06 211.77 32.06C211.24 32.06 210.75 32.15 210.3 32.33C209.86 32.51 209.47 32.77 209.13 33.11C208.8 33.44 208.54 33.83 208.35 34.28C208.17 34.72 208.08 35.21 208.08 35.75C208.08 36.28 208.17 36.77 208.35 37.22C208.54 37.67 208.8 38.065 209.13 38.405C209.46 38.735 209.85 38.99 210.3 39.17C210.75 39.35 211.24 39.44 211.77 39.44ZM224.411 41.15C223.611 41.15 222.866 41.02 222.176 40.76C221.496 40.49 220.901 40.115 220.391 39.635C219.891 39.145 219.501 38.57 219.221 37.91C218.941 37.25 218.801 36.53 218.801 35.75C218.801 34.97 218.941 34.25 219.221 33.59C219.501 32.93 219.896 32.36 220.406 31.88C220.916 31.39 221.511 31.015 222.191 30.755C222.871 30.485 223.616 30.35 224.426 30.35C225.286 30.35 226.071 30.5 226.781 30.8C227.491 31.09 228.091 31.525 228.581 32.105L227.321 33.29C226.941 32.88 226.516 32.575 226.046 32.375C225.576 32.165 225.066 32.06 224.516 32.06C223.966 32.06 223.461 32.15 223.001 32.33C222.551 32.51 222.156 32.765 221.816 33.095C221.486 33.425 221.226 33.815 221.036 34.265C220.856 34.715 220.766 35.21 220.766 35.75C220.766 36.29 220.856 36.785 221.036 37.235C221.226 37.685 221.486 38.075 221.816 38.405C222.156 38.735 222.551 38.99 223.001 39.17C223.461 39.35 223.966 39.44 224.516 39.44C225.066 39.44 225.576 39.34 226.046 39.14C226.516 38.93 226.941 38.615 227.321 38.195L228.581 39.395C228.091 39.965 227.491 40.4 226.781 40.7C226.071 41 225.281 41.15 224.411 41.15ZM232.479 41V31.67L232.944 32.15H229.014V30.5H237.894V32.15H233.964L234.414 31.67V41H232.479ZM239.272 39.35C239.822 39.54 240.307 39.59 240.727 39.5C241.147 39.41 241.522 39.105 241.852 38.585L242.362 37.79L242.557 37.58L246.217 30.5H248.137L243.577 38.975C243.207 39.685 242.767 40.225 242.257 40.595C241.747 40.965 241.197 41.17 240.607 41.21C240.027 41.26 239.422 41.15 238.792 40.88L239.272 39.35ZM242.512 39.26L237.832 30.5H239.917L243.577 37.76L242.512 39.26ZM249.508 41V30.5H258.793V41H256.873V31.67L257.323 32.15H250.978L251.428 31.67V41H249.508ZM80.9531 61.965L81.5831 60.54C82.0331 60.85 82.5231 61.09 83.0531 61.26C83.5931 61.42 84.1281 61.505 84.6581 61.515C85.1881 61.525 85.6681 61.465 86.0981 61.335C86.5381 61.205 86.8881 61.01 87.1481 60.75C87.4081 60.49 87.5381 60.165 87.5381 59.775C87.5381 59.305 87.3431 58.955 86.9531 58.725C86.5731 58.485 86.0531 58.365 85.3931 58.365H82.9481V56.835H85.2431C85.8331 56.835 86.2881 56.715 86.6081 56.475C86.9381 56.235 87.1031 55.91 87.1031 55.5C87.1031 55.16 86.9931 54.88 86.7731 54.66C86.5631 54.44 86.2731 54.275 85.9031 54.165C85.5431 54.055 85.1331 54.005 84.6731 54.015C84.2231 54.015 83.7531 54.085 83.2631 54.225C82.7731 54.355 82.3081 54.55 81.8681 54.81L81.2531 53.235C81.9131 52.885 82.6031 52.64 83.3231 52.5C84.0531 52.36 84.7581 52.32 85.4381 52.38C86.1181 52.44 86.7281 52.595 87.2681 52.845C87.8181 53.095 88.2581 53.425 88.5881 53.835C88.9181 54.235 89.0831 54.71 89.0831 55.26C89.0831 55.76 88.9481 56.205 88.6781 56.595C88.4181 56.975 88.0581 57.27 87.5981 57.48C87.1381 57.69 86.6031 57.795 85.9931 57.795L86.0681 57.315C86.7581 57.315 87.3581 57.435 87.8681 57.675C88.3881 57.905 88.7881 58.225 89.0681 58.635C89.3581 59.045 89.5031 59.52 89.5031 60.06C89.5031 60.57 89.3731 61.025 89.1131 61.425C88.8531 61.815 88.4981 62.145 88.0481 62.415C87.5981 62.675 87.0831 62.87 86.5031 63C85.9231 63.12 85.3131 63.165 84.6731 63.135C84.0331 63.105 83.3931 62.995 82.7531 62.805C82.1231 62.615 81.5231 62.335 80.9531 61.965ZM91.7443 63V52.5H93.6643V63H91.7443ZM99.7324 61.965L100.362 60.54C100.812 60.85 101.302 61.09 101.832 61.26C102.372 61.42 102.907 61.505 103.437 61.515C103.967 61.525 104.447 61.465 104.877 61.335C105.317 61.205 105.667 61.01 105.927 60.75C106.187 60.49 106.317 60.165 106.317 59.775C106.317 59.305 106.122 58.955 105.732 58.725C105.352 58.485 104.832 58.365 104.172 58.365H101.727V56.835H104.022C104.612 56.835 105.067 56.715 105.387 56.475C105.717 56.235 105.882 55.91 105.882 55.5C105.882 55.16 105.772 54.88 105.552 54.66C105.342 54.44 105.052 54.275 104.682 54.165C104.322 54.055 103.912 54.005 103.452 54.015C103.002 54.015 102.532 54.085 102.042 54.225C101.552 54.355 101.087 54.55 100.647 54.81L100.032 53.235C100.692 52.885 101.382 52.64 102.102 52.5C102.832 52.36 103.537 52.32 104.217 52.38C104.897 52.44 105.507 52.595 106.047 52.845C106.597 53.095 107.037 53.425 107.367 53.835C107.697 54.235 107.862 54.71 107.862 55.26C107.862 55.76 107.727 56.205 107.457 56.595C107.197 56.975 106.837 57.27 106.377 57.48C105.917 57.69 105.382 57.795 104.772 57.795L104.847 57.315C105.537 57.315 106.137 57.435 106.647 57.675C107.167 57.905 107.567 58.225 107.847 58.635C108.137 59.045 108.282 59.52 108.282 60.06C108.282 60.57 108.152 61.025 107.892 61.425C107.632 61.815 107.277 62.145 106.827 62.415C106.377 62.675 105.862 62.87 105.282 63C104.702 63.12 104.092 63.165 103.452 63.135C102.812 63.105 102.172 62.995 101.532 62.805C100.902 62.615 100.302 62.335 99.7324 61.965ZM117.889 52.5H119.839V63H117.889V52.5ZM112.459 63H110.509V52.5H112.459V63ZM118.039 58.5H112.294V56.835H118.039V58.5ZM122.799 63V52.5H124.719V59.955L130.359 52.5H132.174V63H130.254V55.56L124.614 63H122.799ZM146.938 63L143.878 57.885L145.528 56.91L149.188 63H146.938ZM141.928 58.575V56.895H145.093V58.575H141.928ZM145.633 57.975L143.818 57.735L146.893 52.5H148.963L145.633 57.975ZM136.138 63H133.888L137.548 56.91L139.213 57.885L136.138 63ZM142.498 63H140.593V52.5H142.498V63ZM141.163 58.575H137.983V56.895H141.163V58.575ZM137.458 57.975L134.113 52.5H136.183L139.243 57.735L137.458 57.975ZM157.488 63L153.933 57.885L155.508 56.91L159.693 63H157.488ZM150.543 63V52.5H152.463V63H150.543ZM151.878 58.575V56.895H155.418V58.575H151.878ZM155.688 57.975L153.903 57.735L157.488 52.5H159.558L155.688 57.975ZM165.862 63.15C165.042 63.15 164.287 63.015 163.597 62.745C162.907 62.475 162.307 62.1 161.797 61.62C161.287 61.13 160.892 60.56 160.612 59.91C160.332 59.25 160.192 58.53 160.192 57.75C160.192 56.97 160.332 56.255 160.612 55.605C160.892 54.945 161.287 54.375 161.797 53.895C162.307 53.405 162.907 53.025 163.597 52.755C164.287 52.485 165.037 52.35 165.847 52.35C166.667 52.35 167.417 52.485 168.097 52.755C168.787 53.025 169.387 53.405 169.897 53.895C170.407 54.375 170.802 54.945 171.082 55.605C171.362 56.255 171.502 56.97 171.502 57.75C171.502 58.53 171.362 59.25 171.082 59.91C170.802 60.57 170.407 61.14 169.897 61.62C169.387 62.1 168.787 62.475 168.097 62.745C167.417 63.015 166.672 63.15 165.862 63.15ZM165.847 61.44C166.377 61.44 166.867 61.35 167.317 61.17C167.767 60.99 168.157 60.735 168.487 60.405C168.817 60.065 169.072 59.675 169.252 59.235C169.442 58.785 169.537 58.29 169.537 57.75C169.537 57.21 169.442 56.72 169.252 56.28C169.072 55.83 168.817 55.44 168.487 55.11C168.157 54.77 167.767 54.51 167.317 54.33C166.867 54.15 166.377 54.06 165.847 54.06C165.317 54.06 164.827 54.15 164.377 54.33C163.937 54.51 163.547 54.77 163.207 55.11C162.877 55.44 162.617 55.83 162.427 56.28C162.247 56.72 162.157 57.21 162.157 57.75C162.157 58.28 162.247 58.77 162.427 59.22C162.617 59.67 162.877 60.065 163.207 60.405C163.537 60.735 163.927 60.99 164.377 61.17C164.827 61.35 165.317 61.44 165.847 61.44ZM173.673 63V52.5H175.593V56.805H178.308V58.545H175.593V63H173.673ZM182.643 63.15C181.863 63.15 181.143 63.015 180.483 62.745C179.823 62.475 179.248 62.1 178.758 61.62C178.268 61.14 177.883 60.57 177.603 59.91C177.333 59.25 177.198 58.53 177.198 57.75C177.198 56.97 177.333 56.25 177.603 55.59C177.883 54.93 178.268 54.36 178.758 53.88C179.248 53.4 179.823 53.025 180.483 52.755C181.143 52.485 181.863 52.35 182.643 52.35C183.413 52.35 184.128 52.485 184.788 52.755C185.458 53.025 186.038 53.4 186.528 53.88C187.018 54.36 187.398 54.93 187.668 55.59C187.938 56.25 188.073 56.97 188.073 57.75C188.073 58.53 187.938 59.25 187.668 59.91C187.398 60.57 187.018 61.14 186.528 61.62C186.038 62.1 185.458 62.475 184.788 62.745C184.128 63.015 183.413 63.15 182.643 63.15ZM182.643 61.44C183.133 61.44 183.588 61.35 184.008 61.17C184.438 60.99 184.808 60.735 185.118 60.405C185.428 60.075 185.668 59.69 185.838 59.25C186.018 58.8 186.108 58.3 186.108 57.75C186.108 57.2 186.018 56.705 185.838 56.265C185.668 55.815 185.428 55.425 185.118 55.095C184.808 54.765 184.438 54.51 184.008 54.33C183.588 54.15 183.133 54.06 182.643 54.06C182.153 54.06 181.698 54.15 181.278 54.33C180.858 54.51 180.488 54.765 180.168 55.095C179.858 55.425 179.613 55.815 179.433 56.265C179.263 56.705 179.178 57.2 179.178 57.75C179.178 58.3 179.263 58.8 179.433 59.25C179.613 59.69 179.858 60.075 180.168 60.405C180.488 60.735 180.858 60.99 181.278 61.17C181.698 61.35 182.153 61.44 182.643 61.44ZM197.13 52.35C198.09 52.35 198.905 52.555 199.575 52.965C200.255 53.365 200.775 53.95 201.135 54.72C201.495 55.49 201.675 56.44 201.675 57.57C201.675 58.77 201.455 59.785 201.015 60.615C200.585 61.445 199.985 62.075 199.215 62.505C198.445 62.935 197.55 63.15 196.53 63.15C196 63.15 195.495 63.095 195.015 62.985C194.535 62.875 194.12 62.705 193.77 62.475L194.49 61.005C194.78 61.195 195.095 61.33 195.435 61.41C195.775 61.48 196.125 61.515 196.485 61.515C197.475 61.515 198.26 61.21 198.84 60.6C199.42 59.99 199.71 59.09 199.71 57.9C199.71 57.71 199.705 57.49 199.695 57.24C199.685 56.98 199.65 56.72 199.59 56.46L200.19 57.12C200.02 57.53 199.775 57.875 199.455 58.155C199.135 58.425 198.76 58.63 198.33 58.77C197.9 58.91 197.425 58.98 196.905 58.98C196.225 58.98 195.61 58.85 195.06 58.59C194.52 58.32 194.09 57.945 193.77 57.465C193.45 56.975 193.29 56.405 193.29 55.755C193.29 55.055 193.46 54.455 193.8 53.955C194.14 53.445 194.6 53.05 195.18 52.77C195.77 52.49 196.42 52.35 197.13 52.35ZM197.235 53.88C196.835 53.88 196.48 53.955 196.17 54.105C195.86 54.245 195.615 54.45 195.435 54.72C195.265 54.98 195.18 55.295 195.18 55.665C195.18 56.215 195.37 56.65 195.75 56.97C196.13 57.29 196.64 57.45 197.28 57.45C197.7 57.45 198.07 57.375 198.39 57.225C198.71 57.065 198.96 56.85 199.14 56.58C199.32 56.3 199.41 55.99 199.41 55.65C199.41 55.32 199.325 55.025 199.155 54.765C198.985 54.495 198.74 54.28 198.42 54.12C198.1 53.96 197.705 53.88 197.235 53.88ZM204.676 63L209.011 53.28L209.521 54.15H203.566L204.496 53.205V55.935H202.681V52.5H210.841V53.805L206.761 63H204.676ZM213.532 63L220.702 52.5H222.172L215.002 63H213.532ZM214.402 58.155C213.912 58.155 213.477 58.035 213.097 57.795C212.717 57.555 212.422 57.22 212.212 56.79C212.002 56.36 211.897 55.855 211.897 55.275C211.897 54.695 212.002 54.19 212.212 53.76C212.422 53.33 212.717 52.995 213.097 52.755C213.477 52.515 213.912 52.395 214.402 52.395C214.912 52.395 215.352 52.515 215.722 52.755C216.102 52.995 216.397 53.33 216.607 53.76C216.817 54.19 216.922 54.695 216.922 55.275C216.922 55.855 216.817 56.36 216.607 56.79C216.397 57.22 216.102 57.555 215.722 57.795C215.352 58.035 214.912 58.155 214.402 58.155ZM214.417 57.105C214.817 57.105 215.127 56.95 215.347 56.64C215.577 56.32 215.692 55.865 215.692 55.275C215.692 54.685 215.577 54.235 215.347 53.925C215.127 53.605 214.817 53.445 214.417 53.445C214.017 53.445 213.697 53.605 213.457 53.925C213.227 54.245 213.112 54.695 213.112 55.275C213.112 55.855 213.227 56.305 213.457 56.625C213.697 56.945 214.017 57.105 214.417 57.105ZM221.287 63.105C220.797 63.105 220.362 62.985 219.982 62.745C219.602 62.505 219.307 62.17 219.097 61.74C218.887 61.31 218.782 60.805 218.782 60.225C218.782 59.645 218.887 59.14 219.097 58.71C219.307 58.28 219.602 57.945 219.982 57.705C220.362 57.465 220.797 57.345 221.287 57.345C221.797 57.345 222.237 57.465 222.607 57.705C222.987 57.945 223.282 58.28 223.492 58.71C223.702 59.14 223.807 59.645 223.807 60.225C223.807 60.805 223.702 61.31 223.492 61.74C223.282 62.17 222.987 62.505 222.607 62.745C222.237 62.985 221.797 63.105 221.287 63.105ZM221.287 62.055C221.687 62.055 222.002 61.895 222.232 61.575C222.462 61.255 222.577 60.805 222.577 60.225C222.577 59.645 222.462 59.195 222.232 58.875C222.002 58.555 221.687 58.395 221.287 58.395C220.897 58.395 220.582 58.555 220.342 58.875C220.112 59.185 219.997 59.635 219.997 60.225C219.997 60.815 220.112 61.27 220.342 61.59C220.582 61.9 220.897 62.055 221.287 62.055ZM225.657 59.52L225.297 52.5H227.517L227.142 59.52H225.657ZM226.407 63.105C226.057 63.105 225.767 62.99 225.537 62.76C225.307 62.53 225.192 62.255 225.192 61.935C225.192 61.615 225.307 61.345 225.537 61.125C225.767 60.895 226.057 60.78 226.407 60.78C226.757 60.78 227.042 60.895 227.262 61.125C227.482 61.345 227.592 61.615 227.592 61.935C227.592 62.255 227.482 62.53 227.262 62.76C227.042 62.99 226.757 63.105 226.407 63.105Z" fill="white"/>
<defs>
<filter id="filter0_d_1504_76" x="0" y="0" width="309" height="95" filterUnits="userSpaceOnUse" color-interpolation-filters="sRGB">
<feFlood flood-opacity="0" result="BackgroundImageFix"/>
<feColorMatrix in="SourceAlpha" type="matrix" values="0 0 0 0 0 0 0 0 0 0 0 0 0 0 0 0 0 0 127 0" result="hardAlpha"/>
<feOffset dy="3"/>
<feComposite in2="hardAlpha" operator="out"/>
<feColorMatrix type="matrix" values="0 0 0 0 0.167222 0 0 0 0 0.593717 0 0 0 0 0.933333 0 0 0 1 0"/>
<feBlend mode="normal" in2="BackgroundImageFix" result="effect1_dropShadow_1504_76"/>
<feBlend mode="normal" in="SourceGraphic" in2="effect1_dropShadow_1504_76" result="shape"/>
</filter>
<radialGradient id="paint0_radial_1504_76" cx="0" cy="0" r="1" gradientUnits="userSpaceOnUse" gradientTransform="translate(164.128 19.32) rotate(94.4179) scale(119.034 166.28)">
<stop stop-color="white"/>
<stop offset="1" stop-color="white" stop-opacity="0"/>
</radialGradient>
<radialGradient id="paint1_radial_1504_76" cx="0" cy="0" r="1" gradientUnits="userSpaceOnUse" gradientTransform="translate(161.129 6.96484e-06) rotate(91.3705) scale(63.9583 108.699)">
<stop stop-color="white"/>
<stop offset="1" stop-color="white" stop-opacity="0"/>
</radialGradient>
</defs>
</svg>
