<svg width="309" height="95" viewBox="0 0 309 95" fill="none" xmlns="http://www.w3.org/2000/svg">
<g filter="url(#filter0_d_1504_236)">
<rect width="309" height="92" rx="10" fill="#3CA8FE"/>
<rect width="309" height="92" rx="10" fill="url(#paint0_radial_1504_236)" fill-opacity="0.34"/>
<rect x="0.5" y="0.5" width="308" height="91" rx="9.5" stroke="white" stroke-opacity="0.2"/>
<rect x="0.5" y="0.5" width="308" height="91" rx="9.5" stroke="url(#paint1_radial_1504_236)" stroke-opacity="0.53"/>
</g>
<path d="M87.0495 41V30.5H96.3345V41H94.4145V31.67L94.8645 32.15H88.5195L88.9695 31.67V41H87.0495ZM99.2952 41V30.5H103.615C104.545 30.5 105.34 30.65 106 30.95C106.67 31.25 107.185 31.68 107.545 32.24C107.905 32.8 108.085 33.465 108.085 34.235C108.085 35.005 107.905 35.67 107.545 36.23C107.185 36.79 106.67 37.22 106 37.52C105.34 37.82 104.545 37.97 103.615 37.97H100.375L101.245 37.055V41H99.2952ZM101.245 37.265L100.375 36.32H103.525C104.385 36.32 105.03 36.14 105.46 35.78C105.9 35.41 106.12 34.895 106.12 34.235C106.12 33.565 105.9 33.05 105.46 32.69C105.03 32.33 104.385 32.15 103.525 32.15H100.375L101.245 31.19V37.265ZM109.945 41V30.5H111.865V37.955L117.505 30.5H119.32V41H117.4V33.56L111.76 41H109.945ZM129.136 40.1V32.15H125.026L124.951 34.01C124.921 34.71 124.876 35.375 124.816 36.005C124.766 36.625 124.681 37.19 124.561 37.7C124.451 38.21 124.296 38.635 124.096 38.975C123.896 39.315 123.651 39.54 123.361 39.65L121.261 39.35C121.641 39.37 121.951 39.24 122.191 38.96C122.441 38.68 122.636 38.29 122.776 37.79C122.916 37.29 123.021 36.705 123.091 36.035C123.161 35.355 123.211 34.62 123.241 33.83L123.361 30.5H131.056V40.1H129.136ZM120.901 43.235L120.916 39.35H132.571V43.235H130.771V41H122.716V43.235H120.901ZM134.423 41V30.5H142.598V32.105H136.343V34.685H139.448C140.708 34.685 141.663 34.95 142.312 35.48C142.973 36 143.303 36.76 143.303 37.76C143.303 38.79 142.938 39.59 142.208 40.16C141.488 40.72 140.468 41 139.148 41H134.423ZM136.343 39.5H139.043C139.793 39.5 140.363 39.355 140.753 39.065C141.143 38.775 141.338 38.355 141.338 37.805C141.338 36.725 140.573 36.185 139.043 36.185H136.343V39.5ZM144.088 41L148.813 30.5H150.733L155.473 41H153.433L149.368 31.535H150.148L146.098 41H144.088ZM146.263 38.57L146.788 37.04H152.458L152.983 38.57H146.263ZM158.761 41V31.67L159.226 32.15H155.296V30.5H164.176V32.15H160.246L160.696 31.67V41H158.761ZM165.873 41V30.5H167.793V37.955L173.433 30.5H175.248V41H173.328V33.56L167.688 41H165.873ZM189.282 41L185.727 35.885L187.302 34.91L191.487 41H189.282ZM182.337 41V30.5H184.257V41H182.337ZM183.672 36.575V34.895H187.212V36.575H183.672ZM187.482 35.975L185.697 35.735L189.282 30.5H191.352L187.482 35.975ZM193.093 39.35C193.643 39.54 194.128 39.59 194.548 39.5C194.968 39.41 195.343 39.105 195.673 38.585L196.183 37.79L196.378 37.58L200.038 30.5H201.958L197.398 38.975C197.028 39.685 196.588 40.225 196.078 40.595C195.568 40.965 195.018 41.17 194.428 41.21C193.848 41.26 193.243 41.15 192.613 40.88L193.093 39.35ZM196.333 39.26L191.653 30.5H193.738L197.398 37.76L196.333 39.26ZM203.314 41V30.5H207.634C208.564 30.5 209.359 30.65 210.019 30.95C210.689 31.25 211.204 31.68 211.564 32.24C211.924 32.8 212.104 33.465 212.104 34.235C212.104 35.005 211.924 35.67 211.564 36.23C211.204 36.79 210.689 37.22 210.019 37.52C209.359 37.82 208.564 37.97 207.634 37.97H204.394L205.264 37.055V41H203.314ZM205.264 37.265L204.394 36.32H207.544C208.404 36.32 209.049 36.14 209.479 35.78C209.919 35.41 210.139 34.895 210.139 34.235C210.139 33.565 209.919 33.05 209.479 32.69C209.049 32.33 208.404 32.15 207.544 32.15H204.394L205.264 31.19V37.265ZM218.925 41.15C218.125 41.15 217.38 41.02 216.69 40.76C216.01 40.49 215.415 40.115 214.905 39.635C214.405 39.145 214.015 38.57 213.735 37.91C213.455 37.25 213.315 36.53 213.315 35.75C213.315 34.97 213.455 34.25 213.735 33.59C214.015 32.93 214.41 32.36 214.92 31.88C215.43 31.39 216.025 31.015 216.705 30.755C217.385 30.485 218.13 30.35 218.94 30.35C219.8 30.35 220.585 30.5 221.295 30.8C222.005 31.09 222.605 31.525 223.095 32.105L221.835 33.29C221.455 32.88 221.03 32.575 220.56 32.375C220.09 32.165 219.58 32.06 219.03 32.06C218.48 32.06 217.975 32.15 217.515 32.33C217.065 32.51 216.67 32.765 216.33 33.095C216 33.425 215.74 33.815 215.55 34.265C215.37 34.715 215.28 35.21 215.28 35.75C215.28 36.29 215.37 36.785 215.55 37.235C215.74 37.685 216 38.075 216.33 38.405C216.67 38.735 217.065 38.99 217.515 39.17C217.975 39.35 218.48 39.44 219.03 39.44C219.58 39.44 220.09 39.34 220.56 39.14C221.03 38.93 221.455 38.615 221.835 38.195L223.095 39.395C222.605 39.965 222.005 40.4 221.295 40.7C220.585 41 219.795 41.15 218.925 41.15ZM80.9531 61.965L81.5831 60.54C82.0331 60.85 82.5231 61.09 83.0531 61.26C83.5931 61.42 84.1281 61.505 84.6581 61.515C85.1881 61.525 85.6681 61.465 86.0981 61.335C86.5381 61.205 86.8881 61.01 87.1481 60.75C87.4081 60.49 87.5381 60.165 87.5381 59.775C87.5381 59.305 87.3431 58.955 86.9531 58.725C86.5731 58.485 86.0531 58.365 85.3931 58.365H82.9481V56.835H85.2431C85.8331 56.835 86.2881 56.715 86.6081 56.475C86.9381 56.235 87.1031 55.91 87.1031 55.5C87.1031 55.16 86.9931 54.88 86.7731 54.66C86.5631 54.44 86.2731 54.275 85.9031 54.165C85.5431 54.055 85.1331 54.005 84.6731 54.015C84.2231 54.015 83.7531 54.085 83.2631 54.225C82.7731 54.355 82.3081 54.55 81.8681 54.81L81.2531 53.235C81.9131 52.885 82.6031 52.64 83.3231 52.5C84.0531 52.36 84.7581 52.32 85.4381 52.38C86.1181 52.44 86.7281 52.595 87.2681 52.845C87.8181 53.095 88.2581 53.425 88.5881 53.835C88.9181 54.235 89.0831 54.71 89.0831 55.26C89.0831 55.76 88.9481 56.205 88.6781 56.595C88.4181 56.975 88.0581 57.27 87.5981 57.48C87.1381 57.69 86.6031 57.795 85.9931 57.795L86.0681 57.315C86.7581 57.315 87.3581 57.435 87.8681 57.675C88.3881 57.905 88.7881 58.225 89.0681 58.635C89.3581 59.045 89.5031 59.52 89.5031 60.06C89.5031 60.57 89.3731 61.025 89.1131 61.425C88.8531 61.815 88.4981 62.145 88.0481 62.415C87.5981 62.675 87.0831 62.87 86.5031 63C85.9231 63.12 85.3131 63.165 84.6731 63.135C84.0331 63.105 83.3931 62.995 82.7531 62.805C82.1231 62.615 81.5231 62.335 80.9531 61.965ZM91.7443 63V52.5H93.6643V63H91.7443ZM99.7324 61.965L100.362 60.54C100.812 60.85 101.302 61.09 101.832 61.26C102.372 61.42 102.907 61.505 103.437 61.515C103.967 61.525 104.447 61.465 104.877 61.335C105.317 61.205 105.667 61.01 105.927 60.75C106.187 60.49 106.317 60.165 106.317 59.775C106.317 59.305 106.122 58.955 105.732 58.725C105.352 58.485 104.832 58.365 104.172 58.365H101.727V56.835H104.022C104.612 56.835 105.067 56.715 105.387 56.475C105.717 56.235 105.882 55.91 105.882 55.5C105.882 55.16 105.772 54.88 105.552 54.66C105.342 54.44 105.052 54.275 104.682 54.165C104.322 54.055 103.912 54.005 103.452 54.015C103.002 54.015 102.532 54.085 102.042 54.225C101.552 54.355 101.087 54.55 100.647 54.81L100.032 53.235C100.692 52.885 101.382 52.64 102.102 52.5C102.832 52.36 103.537 52.32 104.217 52.38C104.897 52.44 105.507 52.595 106.047 52.845C106.597 53.095 107.037 53.425 107.367 53.835C107.697 54.235 107.862 54.71 107.862 55.26C107.862 55.76 107.727 56.205 107.457 56.595C107.197 56.975 106.837 57.27 106.377 57.48C105.917 57.69 105.382 57.795 104.772 57.795L104.847 57.315C105.537 57.315 106.137 57.435 106.647 57.675C107.167 57.905 107.567 58.225 107.847 58.635C108.137 59.045 108.282 59.52 108.282 60.06C108.282 60.57 108.152 61.025 107.892 61.425C107.632 61.815 107.277 62.145 106.827 62.415C106.377 62.675 105.862 62.87 105.282 63C104.702 63.12 104.092 63.165 103.452 63.135C102.812 63.105 102.172 62.995 101.532 62.805C100.902 62.615 100.302 62.335 99.7324 61.965ZM117.889 52.5H119.839V63H117.889V52.5ZM112.459 63H110.509V52.5H112.459V63ZM118.039 58.5H112.294V56.835H118.039V58.5ZM122.799 63V52.5H124.719V59.955L130.359 52.5H132.174V63H130.254V55.56L124.614 63H122.799ZM146.938 63L143.878 57.885L145.528 56.91L149.188 63H146.938ZM141.928 58.575V56.895H145.093V58.575H141.928ZM145.633 57.975L143.818 57.735L146.893 52.5H148.963L145.633 57.975ZM136.138 63H133.888L137.548 56.91L139.213 57.885L136.138 63ZM142.498 63H140.593V52.5H142.498V63ZM141.163 58.575H137.983V56.895H141.163V58.575ZM137.458 57.975L134.113 52.5H136.183L139.243 57.735L137.458 57.975ZM157.488 63L153.933 57.885L155.508 56.91L159.693 63H157.488ZM150.543 63V52.5H152.463V63H150.543ZM151.878 58.575V56.895H155.418V58.575H151.878ZM155.688 57.975L153.903 57.735L157.488 52.5H159.558L155.688 57.975ZM165.862 63.15C165.042 63.15 164.287 63.015 163.597 62.745C162.907 62.475 162.307 62.1 161.797 61.62C161.287 61.13 160.892 60.56 160.612 59.91C160.332 59.25 160.192 58.53 160.192 57.75C160.192 56.97 160.332 56.255 160.612 55.605C160.892 54.945 161.287 54.375 161.797 53.895C162.307 53.405 162.907 53.025 163.597 52.755C164.287 52.485 165.037 52.35 165.847 52.35C166.667 52.35 167.417 52.485 168.097 52.755C168.787 53.025 169.387 53.405 169.897 53.895C170.407 54.375 170.802 54.945 171.082 55.605C171.362 56.255 171.502 56.97 171.502 57.75C171.502 58.53 171.362 59.25 171.082 59.91C170.802 60.57 170.407 61.14 169.897 61.62C169.387 62.1 168.787 62.475 168.097 62.745C167.417 63.015 166.672 63.15 165.862 63.15ZM165.847 61.44C166.377 61.44 166.867 61.35 167.317 61.17C167.767 60.99 168.157 60.735 168.487 60.405C168.817 60.065 169.072 59.675 169.252 59.235C169.442 58.785 169.537 58.29 169.537 57.75C169.537 57.21 169.442 56.72 169.252 56.28C169.072 55.83 168.817 55.44 168.487 55.11C168.157 54.77 167.767 54.51 167.317 54.33C166.867 54.15 166.377 54.06 165.847 54.06C165.317 54.06 164.827 54.15 164.377 54.33C163.937 54.51 163.547 54.77 163.207 55.11C162.877 55.44 162.617 55.83 162.427 56.28C162.247 56.72 162.157 57.21 162.157 57.75C162.157 58.28 162.247 58.77 162.427 59.22C162.617 59.67 162.877 60.065 163.207 60.405C163.537 60.735 163.927 60.99 164.377 61.17C164.827 61.35 165.317 61.44 165.847 61.44ZM173.673 63V52.5H175.593V56.805H178.308V58.545H175.593V63H173.673ZM182.643 63.15C181.863 63.15 181.143 63.015 180.483 62.745C179.823 62.475 179.248 62.1 178.758 61.62C178.268 61.14 177.883 60.57 177.603 59.91C177.333 59.25 177.198 58.53 177.198 57.75C177.198 56.97 177.333 56.25 177.603 55.59C177.883 54.93 178.268 54.36 178.758 53.88C179.248 53.4 179.823 53.025 180.483 52.755C181.143 52.485 181.863 52.35 182.643 52.35C183.413 52.35 184.128 52.485 184.788 52.755C185.458 53.025 186.038 53.4 186.528 53.88C187.018 54.36 187.398 54.93 187.668 55.59C187.938 56.25 188.073 56.97 188.073 57.75C188.073 58.53 187.938 59.25 187.668 59.91C187.398 60.57 187.018 61.14 186.528 61.62C186.038 62.1 185.458 62.475 184.788 62.745C184.128 63.015 183.413 63.15 182.643 63.15ZM182.643 61.44C183.133 61.44 183.588 61.35 184.008 61.17C184.438 60.99 184.808 60.735 185.118 60.405C185.428 60.075 185.668 59.69 185.838 59.25C186.018 58.8 186.108 58.3 186.108 57.75C186.108 57.2 186.018 56.705 185.838 56.265C185.668 55.815 185.428 55.425 185.118 55.095C184.808 54.765 184.438 54.51 184.008 54.33C183.588 54.15 183.133 54.06 182.643 54.06C182.153 54.06 181.698 54.15 181.278 54.33C180.858 54.51 180.488 54.765 180.168 55.095C179.858 55.425 179.613 55.815 179.433 56.265C179.263 56.705 179.178 57.2 179.178 57.75C179.178 58.3 179.263 58.8 179.433 59.25C179.613 59.69 179.858 60.075 180.168 60.405C180.488 60.735 180.858 60.99 181.278 61.17C181.698 61.35 182.153 61.44 182.643 61.44ZM197.13 52.35C198.09 52.35 198.905 52.555 199.575 52.965C200.255 53.365 200.775 53.95 201.135 54.72C201.495 55.49 201.675 56.44 201.675 57.57C201.675 58.77 201.455 59.785 201.015 60.615C200.585 61.445 199.985 62.075 199.215 62.505C198.445 62.935 197.55 63.15 196.53 63.15C196 63.15 195.495 63.095 195.015 62.985C194.535 62.875 194.12 62.705 193.77 62.475L194.49 61.005C194.78 61.195 195.095 61.33 195.435 61.41C195.775 61.48 196.125 61.515 196.485 61.515C197.475 61.515 198.26 61.21 198.84 60.6C199.42 59.99 199.71 59.09 199.71 57.9C199.71 57.71 199.705 57.49 199.695 57.24C199.685 56.98 199.65 56.72 199.59 56.46L200.19 57.12C200.02 57.53 199.775 57.875 199.455 58.155C199.135 58.425 198.76 58.63 198.33 58.77C197.9 58.91 197.425 58.98 196.905 58.98C196.225 58.98 195.61 58.85 195.06 58.59C194.52 58.32 194.09 57.945 193.77 57.465C193.45 56.975 193.29 56.405 193.29 55.755C193.29 55.055 193.46 54.455 193.8 53.955C194.14 53.445 194.6 53.05 195.18 52.77C195.77 52.49 196.42 52.35 197.13 52.35ZM197.235 53.88C196.835 53.88 196.48 53.955 196.17 54.105C195.86 54.245 195.615 54.45 195.435 54.72C195.265 54.98 195.18 55.295 195.18 55.665C195.18 56.215 195.37 56.65 195.75 56.97C196.13 57.29 196.64 57.45 197.28 57.45C197.7 57.45 198.07 57.375 198.39 57.225C198.71 57.065 198.96 56.85 199.14 56.58C199.32 56.3 199.41 55.99 199.41 55.65C199.41 55.32 199.325 55.025 199.155 54.765C198.985 54.495 198.74 54.28 198.42 54.12C198.1 53.96 197.705 53.88 197.235 53.88ZM204.676 63L209.011 53.28L209.521 54.15H203.566L204.496 53.205V55.935H202.681V52.5H210.841V53.805L206.761 63H204.676ZM213.532 63L220.702 52.5H222.172L215.002 63H213.532ZM214.402 58.155C213.912 58.155 213.477 58.035 213.097 57.795C212.717 57.555 212.422 57.22 212.212 56.79C212.002 56.36 211.897 55.855 211.897 55.275C211.897 54.695 212.002 54.19 212.212 53.76C212.422 53.33 212.717 52.995 213.097 52.755C213.477 52.515 213.912 52.395 214.402 52.395C214.912 52.395 215.352 52.515 215.722 52.755C216.102 52.995 216.397 53.33 216.607 53.76C216.817 54.19 216.922 54.695 216.922 55.275C216.922 55.855 216.817 56.36 216.607 56.79C216.397 57.22 216.102 57.555 215.722 57.795C215.352 58.035 214.912 58.155 214.402 58.155ZM214.417 57.105C214.817 57.105 215.127 56.95 215.347 56.64C215.577 56.32 215.692 55.865 215.692 55.275C215.692 54.685 215.577 54.235 215.347 53.925C215.127 53.605 214.817 53.445 214.417 53.445C214.017 53.445 213.697 53.605 213.457 53.925C213.227 54.245 213.112 54.695 213.112 55.275C213.112 55.855 213.227 56.305 213.457 56.625C213.697 56.945 214.017 57.105 214.417 57.105ZM221.287 63.105C220.797 63.105 220.362 62.985 219.982 62.745C219.602 62.505 219.307 62.17 219.097 61.74C218.887 61.31 218.782 60.805 218.782 60.225C218.782 59.645 218.887 59.14 219.097 58.71C219.307 58.28 219.602 57.945 219.982 57.705C220.362 57.465 220.797 57.345 221.287 57.345C221.797 57.345 222.237 57.465 222.607 57.705C222.987 57.945 223.282 58.28 223.492 58.71C223.702 59.14 223.807 59.645 223.807 60.225C223.807 60.805 223.702 61.31 223.492 61.74C223.282 62.17 222.987 62.505 222.607 62.745C222.237 62.985 221.797 63.105 221.287 63.105ZM221.287 62.055C221.687 62.055 222.002 61.895 222.232 61.575C222.462 61.255 222.577 60.805 222.577 60.225C222.577 59.645 222.462 59.195 222.232 58.875C222.002 58.555 221.687 58.395 221.287 58.395C220.897 58.395 220.582 58.555 220.342 58.875C220.112 59.185 219.997 59.635 219.997 60.225C219.997 60.815 220.112 61.27 220.342 61.59C220.582 61.9 220.897 62.055 221.287 62.055ZM225.657 59.52L225.297 52.5H227.517L227.142 59.52H225.657ZM226.407 63.105C226.057 63.105 225.767 62.99 225.537 62.76C225.307 62.53 225.192 62.255 225.192 61.935C225.192 61.615 225.307 61.345 225.537 61.125C225.767 60.895 226.057 60.78 226.407 60.78C226.757 60.78 227.042 60.895 227.262 61.125C227.482 61.345 227.592 61.615 227.592 61.935C227.592 62.255 227.482 62.53 227.262 62.76C227.042 62.99 226.757 63.105 226.407 63.105Z" fill="white"/>
<defs>
<filter id="filter0_d_1504_236" x="0" y="0" width="309" height="95" filterUnits="userSpaceOnUse" color-interpolation-filters="sRGB">
<feFlood flood-opacity="0" result="BackgroundImageFix"/>
<feColorMatrix in="SourceAlpha" type="matrix" values="0 0 0 0 0 0 0 0 0 0 0 0 0 0 0 0 0 0 127 0" result="hardAlpha"/>
<feOffset dy="3"/>
<feComposite in2="hardAlpha" operator="out"/>
<feColorMatrix type="matrix" values="0 0 0 0 0.167222 0 0 0 0 0.593717 0 0 0 0 0.933333 0 0 0 1 0"/>
<feBlend mode="normal" in2="BackgroundImageFix" result="effect1_dropShadow_1504_236"/>
<feBlend mode="normal" in="SourceGraphic" in2="effect1_dropShadow_1504_236" result="shape"/>
</filter>
<radialGradient id="paint0_radial_1504_236" cx="0" cy="0" r="1" gradientUnits="userSpaceOnUse" gradientTransform="translate(164.128 19.32) rotate(94.4179) scale(119.034 166.28)">
<stop stop-color="white"/>
<stop offset="1" stop-color="white" stop-opacity="0"/>
</radialGradient>
<radialGradient id="paint1_radial_1504_236" cx="0" cy="0" r="1" gradientUnits="userSpaceOnUse" gradientTransform="translate(161.129 6.96484e-06) rotate(91.3705) scale(63.9583 108.699)">
<stop stop-color="white"/>
<stop offset="1" stop-color="white" stop-opacity="0"/>
</radialGradient>
</defs>
</svg>
