<svg width="230" height="146" viewBox="0 0 230 146" fill="none" xmlns="http://www.w3.org/2000/svg">
<path d="M71.4761 32.6C71.4761 35.4 70.7261 37.5667 69.2261 39.1C67.7594 40.6333 65.6427 41.4 62.8761 41.4C60.1094 41.4 57.9761 40.6333 56.4761 39.1C55.0094 37.5667 54.2761 35.4 54.2761 32.6V29.85C54.2761 26.25 55.4094 23.8167 57.6761 22.55C55.4094 21.3167 54.2761 18.9667 54.2761 15.5V14.4C54.2761 11.6 55.0094 9.43333 56.4761 7.9C57.9761 6.36667 60.1094 5.6 62.8761 5.6C65.6427 5.6 67.7594 6.36667 69.2261 7.9C70.7261 9.43333 71.4761 11.6 71.4761 14.4V15.5C71.4761 18.9333 70.3427 21.2833 68.0761 22.55C70.3427 23.8167 71.4761 26.25 71.4761 29.85V32.6ZM59.7761 32.45C59.7761 35.0833 60.8094 36.4 62.8761 36.4C64.9094 36.4 65.9427 35.0833 65.9761 32.45V29.2C65.9761 26.5667 64.9427 25.25 62.8761 25.25C60.8094 25.25 59.7761 26.5667 59.7761 29.2V32.45ZM59.7761 14.6V16.55C59.7761 19.0167 60.8094 20.25 62.8761 20.25C64.9427 20.25 65.9761 19.0167 65.9761 16.55V14.6C65.9761 11.9333 64.9427 10.6 62.8761 10.6C60.8094 10.6 59.7761 11.9333 59.7761 14.6ZM98.714 14.4V32.3C98.714 38.3667 95.914 41.4 90.314 41.4C87.6473 41.4 85.614 40.65 84.214 39.15C82.814 37.6167 82.114 35.4333 82.114 32.6V31.7H87.314V32.95C87.314 35.25 88.264 36.4 90.164 36.4C91.1973 36.4 91.964 36.0833 92.464 35.45C92.964 34.8167 93.214 33.7 93.214 32.1V25.7C92.2473 27.7667 90.5473 28.8 88.114 28.8C84.0473 28.8 82.014 26.1333 82.014 20.8V14.4C82.014 11.6 82.7306 9.43333 84.164 7.9C85.5973 6.36667 87.664 5.6 90.364 5.6C93.064 5.6 95.1306 6.36667 96.564 7.9C97.9973 9.43333 98.714 11.6 98.714 14.4ZM87.514 20.35C87.514 22.65 88.464 23.8 90.364 23.8C92.264 23.8 93.214 22.65 93.214 20.35V14.05C93.214 11.7833 92.264 10.65 90.364 10.65C88.464 10.65 87.514 11.7833 87.514 14.05V20.35ZM107.438 14.05V32.95C107.438 35.25 108.388 36.4 110.288 36.4C112.188 36.4 113.138 35.25 113.138 32.95V14.05C113.138 11.75 112.188 10.6 110.288 10.6C108.388 10.6 107.438 11.75 107.438 14.05ZM101.938 32.6V14.4C101.938 11.6 102.655 9.43333 104.088 7.9C105.522 6.36667 107.588 5.6 110.288 5.6C112.988 5.6 115.055 6.36667 116.488 7.9C117.922 9.43333 118.638 11.6 118.638 14.4V32.6C118.638 35.4 117.922 37.5667 116.488 39.1C115.055 40.6333 112.988 41.4 110.288 41.4C107.588 41.4 105.522 40.6333 104.088 39.1C102.655 37.5667 101.938 35.4 101.938 32.6ZM127.262 14.05V32.95C127.262 35.25 128.212 36.4 130.112 36.4C132.012 36.4 132.962 35.25 132.962 32.95V14.05C132.962 11.75 132.012 10.6 130.112 10.6C128.212 10.6 127.262 11.75 127.262 14.05ZM121.762 32.6V14.4C121.762 11.6 122.479 9.43333 123.912 7.9C125.346 6.36667 127.412 5.6 130.112 5.6C132.812 5.6 134.879 6.36667 136.312 7.9C137.746 9.43333 138.462 11.6 138.462 14.4V32.6C138.462 35.4 137.746 37.5667 136.312 39.1C134.879 40.6333 132.812 41.4 130.112 41.4C127.412 41.4 125.346 40.6333 123.912 39.1C122.479 37.5667 121.762 35.4 121.762 32.6ZM151.575 41H148.825V23.5H156.075V26H151.575V41ZM161.981 23.5C164.714 23.5 166.081 24.9417 166.081 27.825V30.1C166.081 32.9833 164.714 34.425 161.981 34.425H160.681V41H157.931V23.5H161.981ZM161.981 26H160.681V31.925H161.981C162.431 31.925 162.764 31.8 162.981 31.55C163.214 31.3 163.331 30.875 163.331 30.275V27.65C163.331 27.05 163.214 26.625 162.981 26.375C162.764 26.125 162.431 26 161.981 26ZM170.105 33.5V41H167.355V23.5H170.105V31H173.23V23.5H176.03V41H173.23V33.5H170.105Z" fill="#B5B5B5"/>
<line x1="48.6566" y1="40.0608" x2="141.657" y2="6.0608" stroke="#FF3838" stroke-width="2"/>
<path d="M46.7895 83.224C46.7895 79.714 46.2045 77.296 45.0345 75.97C43.9425 74.566 42.3045 73.864 40.1205 73.864C35.6745 73.864 33.4515 76.555 33.4515 81.937V90.712H21.2835V82.756C21.2835 76.126 22.9215 71.056 26.1975 67.546C29.4735 63.958 34.2315 62.164 40.4715 62.164C46.7115 62.164 51.4695 63.958 54.7455 67.546C58.0215 71.056 59.6595 76.126 59.6595 82.756C59.6595 87.514 58.7625 92.038 56.9685 96.328C55.2525 100.618 53.1075 104.284 50.5335 107.326C48.0375 110.368 45.5415 113.215 43.0455 115.867C40.5495 118.519 38.4045 121.21 36.6105 123.94C34.8945 126.592 34.0365 129.127 34.0365 131.545C34.0365 132.325 34.0755 132.91 34.1535 133.3H58.4895V145H21.2835V134.938C21.2835 130.492 22.1415 126.436 23.8575 122.77C25.6515 119.026 27.7965 115.789 30.2925 113.059C32.7885 110.251 35.2845 107.521 37.7805 104.869C40.2765 102.139 42.3825 98.941 44.0985 95.275C45.8925 91.609 46.7895 87.592 46.7895 83.224ZM105.463 82.756V124.642C105.463 138.838 98.9112 145.936 85.8072 145.936C79.5672 145.936 74.8092 144.181 71.5332 140.671C68.2572 137.083 66.6192 131.974 66.6192 125.344V123.238H78.7872V126.163C78.7872 131.545 81.0102 134.236 85.4562 134.236C87.8742 134.236 89.6682 133.495 90.8382 132.013C92.0082 130.531 92.5932 127.918 92.5932 124.174V109.198C90.3312 114.034 86.3532 116.452 80.6592 116.452C71.1432 116.452 66.3852 110.212 66.3852 97.732V82.756C66.3852 76.204 68.0622 71.134 71.4162 67.546C74.7702 63.958 79.6062 62.164 85.9242 62.164C92.2422 62.164 97.0782 63.958 100.432 67.546C103.786 71.134 105.463 76.204 105.463 82.756ZM79.2552 96.679C79.2552 102.061 81.4782 104.752 85.9242 104.752C90.3702 104.752 92.5932 102.061 92.5932 96.679V81.937C92.5932 76.633 90.3702 73.981 85.9242 73.981C81.4782 73.981 79.2552 76.633 79.2552 81.937V96.679ZM151.852 82.756V124.642C151.852 138.838 145.3 145.936 132.196 145.936C125.956 145.936 121.198 144.181 117.922 140.671C114.646 137.083 113.008 131.974 113.008 125.344V123.238H125.176V126.163C125.176 131.545 127.399 134.236 131.845 134.236C134.263 134.236 136.057 133.495 137.227 132.013C138.397 130.531 138.982 127.918 138.982 124.174V109.198C136.72 114.034 132.742 116.452 127.048 116.452C117.532 116.452 112.774 110.212 112.774 97.732V82.756C112.774 76.204 114.451 71.134 117.805 67.546C121.159 63.958 125.995 62.164 132.313 62.164C138.631 62.164 143.467 63.958 146.821 67.546C150.175 71.134 151.852 76.204 151.852 82.756ZM125.644 96.679C125.644 102.061 127.867 104.752 132.313 104.752C136.759 104.752 138.982 102.061 138.982 96.679V81.937C138.982 76.633 136.759 73.981 132.313 73.981C127.867 73.981 125.644 76.633 125.644 81.937V96.679ZM172.679 145H168.279V117H179.879V121H172.679V145ZM189.328 117C193.701 117 195.888 119.307 195.888 123.92V127.56C195.888 132.173 193.701 134.48 189.328 134.48H187.248V145H182.848V117H189.328ZM189.328 121H187.248V130.48H189.328C190.048 130.48 190.581 130.28 190.928 129.88C191.301 129.48 191.488 128.8 191.488 127.84V123.64C191.488 122.68 191.301 122 190.928 121.6C190.581 121.2 190.048 121 189.328 121ZM202.326 133V145H197.926V117H202.326V129H207.326V117H211.806V145H207.326V133H202.326Z" fill="#FF0202"/>
</svg>
