<svg width="278" height="59" viewBox="0 0 278 59" fill="none" xmlns="http://www.w3.org/2000/svg">
<rect x="0.5" y="0.5" width="151.296" height="57.0174" rx="4.5" fill="#ED0000" stroke="#FF3838"/>
<path d="M50.5832 21.88C50.5832 20.68 50.3832 19.8533 49.9832 19.4C49.6099 18.92 49.0499 18.68 48.3032 18.68C46.7832 18.68 46.0232 19.6 46.0232 21.44V24.44H41.8632V21.72C41.8632 19.4533 42.4232 17.72 43.5432 16.52C44.6632 15.2933 46.2899 14.68 48.4232 14.68C50.5565 14.68 52.1832 15.2933 53.3032 16.52C54.4232 17.72 54.9832 19.4533 54.9832 21.72C54.9832 23.3467 54.6765 24.8933 54.0632 26.36C53.4765 27.8267 52.7432 29.08 51.8632 30.12C51.0099 31.16 50.1565 32.1333 49.3032 33.04C48.4499 33.9467 47.7165 34.8667 47.1032 35.8C46.5165 36.7067 46.2232 37.5733 46.2232 38.4C46.2232 38.6667 46.2365 38.8667 46.2632 39H54.5832V43H41.8632V39.56C41.8632 38.04 42.1565 36.6533 42.7432 35.4C43.3565 34.12 44.0899 33.0133 44.9432 32.08C45.7965 31.12 46.6499 30.1867 47.5032 29.28C48.3565 28.3467 49.0765 27.2533 49.6632 26C50.2765 24.7467 50.5832 23.3733 50.5832 21.88ZM70.6426 21.72V36.04C70.6426 40.8933 68.4026 43.32 63.9226 43.32C61.7892 43.32 60.1626 42.72 59.0426 41.52C57.9226 40.2933 57.3626 38.5467 57.3626 36.28V35.56H61.5226V36.56C61.5226 38.4 62.2826 39.32 63.8026 39.32C64.6292 39.32 65.2426 39.0667 65.6426 38.56C66.0426 38.0533 66.2426 37.16 66.2426 35.88V30.76C65.4692 32.4133 64.1092 33.24 62.1626 33.24C58.9092 33.24 57.2826 31.1067 57.2826 26.84V21.72C57.2826 19.48 57.8559 17.7467 59.0026 16.52C60.1492 15.2933 61.8026 14.68 63.9626 14.68C66.1226 14.68 67.7759 15.2933 68.9226 16.52C70.0692 17.7467 70.6426 19.48 70.6426 21.72ZM61.6826 26.48C61.6826 28.32 62.4426 29.24 63.9626 29.24C65.4826 29.24 66.2426 28.32 66.2426 26.48V21.44C66.2426 19.6267 65.4826 18.72 63.9626 18.72C62.4426 18.72 61.6826 19.6267 61.6826 21.44V26.48ZM86.5019 21.72V36.04C86.5019 40.8933 84.2619 43.32 79.7819 43.32C77.6486 43.32 76.0219 42.72 74.9019 41.52C73.7819 40.2933 73.2219 38.5467 73.2219 36.28V35.56H77.3819V36.56C77.3819 38.4 78.1419 39.32 79.6619 39.32C80.4886 39.32 81.1019 39.0667 81.5019 38.56C81.9019 38.0533 82.1019 37.16 82.1019 35.88V30.76C81.3286 32.4133 79.9686 33.24 78.0219 33.24C74.7686 33.24 73.1419 31.1067 73.1419 26.84V21.72C73.1419 19.48 73.7153 17.7467 74.8619 16.52C76.0086 15.2933 77.6619 14.68 79.8219 14.68C81.9819 14.68 83.6353 15.2933 84.7819 16.52C85.9286 17.7467 86.5019 19.48 86.5019 21.72ZM77.5419 26.48C77.5419 28.32 78.3019 29.24 79.8219 29.24C81.3419 29.24 82.1019 28.32 82.1019 26.48V21.44C82.1019 19.6267 81.3419 18.72 79.8219 18.72C78.3019 18.72 77.5419 19.6267 77.5419 21.44V26.48ZM94.4497 43H92.6897V31.8H97.3297V33.4H94.4497V43ZM101.109 31.8C102.859 31.8 103.733 32.7227 103.733 34.568V36.024C103.733 37.8693 102.859 38.792 101.109 38.792H100.277V43H98.5174V31.8H101.109ZM101.109 33.4H100.277V37.192H101.109C101.397 37.192 101.611 37.112 101.749 36.952C101.899 36.792 101.973 36.52 101.973 36.136V34.456C101.973 34.072 101.899 33.8 101.749 33.64C101.611 33.48 101.397 33.4 101.109 33.4ZM106.309 38.2V43H104.549V31.8H106.309V36.6H108.309V31.8H110.101V43H108.309V38.2H106.309Z" fill="white"/>
<rect x="157.5" y="0.5" width="119.87" height="57.0174" rx="4.5" fill="#E9E9E9" stroke="#CFCFCF"/>
<path d="M192.471 33.0119C192.471 34.5239 192.066 35.6939 191.256 36.5219C190.464 37.3499 189.321 37.7639 187.827 37.7639C186.333 37.7639 185.181 37.3499 184.371 36.5219C183.579 35.6939 183.183 34.5239 183.183 33.0119V31.5269C183.183 29.5829 183.795 28.2689 185.019 27.5849C183.795 26.9189 183.183 25.6499 183.183 23.7779V23.1839C183.183 21.6719 183.579 20.5019 184.371 19.6738C185.181 18.8459 186.333 18.4319 187.827 18.4319C189.321 18.4319 190.464 18.8459 191.256 19.6738C192.066 20.5019 192.471 21.6719 192.471 23.1839V23.7779C192.471 25.6319 191.859 26.9009 190.635 27.5849C191.859 28.2689 192.471 29.5829 192.471 31.5269V33.0119ZM186.153 32.9309C186.153 34.3529 186.711 35.0639 187.827 35.0639C188.925 35.0639 189.483 34.3529 189.501 32.9309V31.1759C189.501 29.7539 188.943 29.0429 187.827 29.0429C186.711 29.0429 186.153 29.7539 186.153 31.1759V32.9309ZM186.153 23.2919V24.3449C186.153 25.6769 186.711 26.3429 187.827 26.3429C188.943 26.3429 189.501 25.6769 189.501 24.3449V23.2919C189.501 21.8519 188.943 21.1319 187.827 21.1319C186.711 21.1319 186.153 21.8519 186.153 23.2919ZM207.179 23.1839V32.8499C207.179 36.1259 205.667 37.7639 202.643 37.7639C201.203 37.7639 200.105 37.3589 199.349 36.5489C198.593 35.7209 198.215 34.5419 198.215 33.0119V32.5259H201.023V33.2009C201.023 34.4429 201.536 35.0639 202.562 35.0639C203.12 35.0639 203.534 34.8929 203.804 34.5509C204.074 34.2089 204.209 33.6059 204.209 32.7419V29.2859C203.687 30.4019 202.769 30.9599 201.455 30.9599C199.259 30.9599 198.161 29.5199 198.161 26.6399V23.1839C198.161 21.6719 198.548 20.5019 199.322 19.6738C200.096 18.8459 201.212 18.4319 202.67 18.4319C204.128 18.4319 205.244 18.8459 206.018 19.6738C206.792 20.5019 207.179 21.6719 207.179 23.1839ZM201.131 26.3969C201.131 27.6389 201.644 28.2599 202.67 28.2599C203.696 28.2599 204.209 27.6389 204.209 26.3969V22.9949C204.209 21.7709 203.696 21.1589 202.67 21.1589C201.644 21.1589 201.131 21.7709 201.131 22.9949V26.3969ZM211.89 22.9949V33.2009C211.89 34.4429 212.403 35.0639 213.429 35.0639C214.455 35.0639 214.968 34.4429 214.968 33.2009V22.9949C214.968 21.7529 214.455 21.1319 213.429 21.1319C212.403 21.1319 211.89 21.7529 211.89 22.9949ZM208.92 33.0119V23.1839C208.92 21.6719 209.307 20.5019 210.081 19.6738C210.855 18.8459 211.971 18.4319 213.429 18.4319C214.887 18.4319 216.003 18.8459 216.777 19.6738C217.551 20.5019 217.938 21.6719 217.938 23.1839V33.0119C217.938 34.5239 217.551 35.6939 216.777 36.5219C216.003 37.3499 214.887 37.7639 213.429 37.7639C211.971 37.7639 210.855 37.3499 210.081 36.5219C209.307 35.6939 208.92 34.5239 208.92 33.0119ZM222.595 22.9949V33.2009C222.595 34.4429 223.108 35.0639 224.134 35.0639C225.16 35.0639 225.673 34.4429 225.673 33.2009V22.9949C225.673 21.7529 225.16 21.1319 224.134 21.1319C223.108 21.1319 222.595 21.7529 222.595 22.9949ZM219.625 33.0119V23.1839C219.625 21.6719 220.012 20.5019 220.786 19.6738C221.56 18.8459 222.676 18.4319 224.134 18.4319C225.592 18.4319 226.708 18.8459 227.482 19.6738C228.256 20.5019 228.643 21.6719 228.643 23.1839V33.0119C228.643 34.5239 228.256 35.6939 227.482 36.5219C226.708 37.3499 225.592 37.7639 224.134 37.7639C222.676 37.7639 221.56 37.3499 220.786 36.5219C220.012 35.6939 219.625 34.5239 219.625 33.0119ZM236.102 37.5479H234.342V26.3479H238.982V27.9479H236.102V37.5479ZM242.761 26.3479C244.511 26.3479 245.385 27.2705 245.385 29.1159V30.5719C245.385 32.4172 244.511 33.3399 242.761 33.3399H241.929V37.5479H240.169V26.3479H242.761ZM242.761 27.9479H241.929V31.7399H242.761C243.049 31.7399 243.263 31.6599 243.401 31.4999C243.551 31.3399 243.625 31.0679 243.625 30.6839V29.0039C243.625 28.6199 243.551 28.3479 243.401 28.1879C243.263 28.0279 243.049 27.9479 242.761 27.9479ZM247.961 32.7479V37.5479H246.201V26.3479H247.961V31.1479H249.961V26.3479H251.753V37.5479H249.961V32.7479H247.961Z" fill="#989898"/>
<line x1="174.869" y1="37.5175" x2="239.06" y2="20.0654" stroke="#FF0000"/>
</svg>
