<svg width="50" height="50" viewBox="0 0 50 50" fill="none" xmlns="http://www.w3.org/2000/svg">
<circle cx="25" cy="25" r="25" transform="matrix(-1 0 0 1 50 0)" fill="url(#paint0_linear_1504_176)"/>
<circle cx="25" cy="25" r="25" transform="matrix(-1 0 0 1 50 0)" fill="url(#paint1_linear_1504_176)"/>
<path d="M19.4696 25.5303C19.1767 25.2374 19.1767 24.7626 19.4696 24.4697L24.2426 19.6967C24.5355 19.4038 25.0103 19.4038 25.3032 19.6967C25.5961 19.9896 25.5961 20.4645 25.3032 20.7574L21.0606 25L25.3032 29.2426C25.5961 29.5355 25.5961 30.0104 25.3032 30.3033C25.0103 30.5962 24.5355 30.5962 24.2426 30.3033L19.4696 25.5303ZM29.2856 25.75L19.9999 25.75V24.25L29.2856 24.25V25.75Z" fill="white"/>
<defs>
<linearGradient id="paint0_linear_1504_176" x1="18.4635" y1="49.2465" x2="72.7215" y2="19.7601" gradientUnits="userSpaceOnUse">
<stop stop-color="#4CC1D8"/>
<stop offset="1" stop-color="#7BE9FF"/>
</linearGradient>
<linearGradient id="paint1_linear_1504_176" x1="25" y1="50" x2="61.4583" y2="13.5417" gradientUnits="userSpaceOnUse">
<stop stop-color="#9EBF43"/>
<stop offset="1" stop-color="#BDDF61"/>
</linearGradient>
</defs>
</svg>
