<svg width="12" height="12" viewBox="0 0 12 12" fill="none" xmlns="http://www.w3.org/2000/svg">
<path d="M5.24624 0.927049C5.54559 0.00573874 6.849 0.00573945 7.14835 0.92705L7.81319 2.97321C7.94707 3.38523 8.33102 3.66419 8.76425 3.66419H10.9157C11.8844 3.66419 12.2872 4.90381 11.5035 5.47321L9.76292 6.73781C9.41244 6.99245 9.26578 7.44382 9.39965 7.85584L10.0645 9.902C10.3638 10.8233 9.30936 11.5894 8.52565 11.02L6.78508 9.75544C6.43459 9.50079 5.96 9.50079 5.60951 9.75544L3.86894 11.02C3.08523 11.5894 2.03075 10.8233 2.3301 9.902L2.99494 7.85584C3.12882 7.44382 2.98216 6.99245 2.63167 6.73781L0.891101 5.47321C0.107388 4.90381 0.510164 3.66419 1.47889 3.66419H3.63035C4.06357 3.66419 4.44753 3.38523 4.5814 2.97321L5.24624 0.927049Z" fill="#FFF09F"/>
</svg>
